<svg id="visual" viewBox="0 0 960 540" width="960" height="540" xmlns="http://www.w3.org/2000/svg" xmlns:xlink="http://www.w3.org/1999/xlink" version="1.1"><path d="M0 300L22.8 308.7C45.7 317.3 91.3 334.7 137 351.5C182.7 368.3 228.3 384.7 274 377.8C319.7 371 365.3 341 411.2 334.3C457 327.7 503 344.3 548.8 358.5C594.7 372.7 640.3 384.3 686 382.8C731.7 381.3 777.3 366.7 823 366.3C868.7 366 914.3 380 937.2 387L960 394L960 541L937.2 541C914.3 541 868.7 541 823 541C777.3 541 731.7 541 686 541C640.3 541 594.7 541 548.8 541C503 541 457 541 411.2 541C365.3 541 319.7 541 274 541C228.3 541 182.7 541 137 541C91.3 541 45.7 541 22.8 541L0 541Z" fill="#fbc531" stroke-linecap="round" stroke-linejoin="miter"></path></svg>