<svg id="visual" viewBox="0 0 450 900" width="450" height="900" xmlns="http://www.w3.org/2000/svg" xmlns:xlink="http://www.w3.org/1999/xlink" version="1.1"><path d="M0 134L18.8 126.7C37.7 119.3 75.3 104.7 112.8 97.7C150.3 90.7 187.7 91.3 225.2 92.5C262.7 93.7 300.3 95.3 337.8 99.3C375.3 103.3 412.7 109.7 431.3 112.8L450 116L450 901L431.3 901C412.7 901 375.3 901 337.8 901C300.3 901 262.7 901 225.2 901C187.7 901 150.3 901 112.8 901C75.3 901 37.7 901 18.8 901L0 901Z" fill="#bc9220"></path><path d="M0 203L18.8 195.3C37.7 187.7 75.3 172.3 112.8 169.3C150.3 166.3 187.7 175.7 225.2 176.2C262.7 176.7 300.3 168.3 337.8 162.5C375.3 156.7 412.7 153.3 431.3 151.7L450 150L450 901L431.3 901C412.7 901 375.3 901 337.8 901C300.3 901 262.7 901 225.2 901C187.7 901 150.3 901 112.8 901C75.3 901 37.7 901 18.8 901L0 901Z" fill="#c79b23"></path><path d="M0 258L18.8 260.3C37.7 262.7 75.3 267.3 112.8 268.8C150.3 270.3 187.7 268.7 225.2 262.8C262.7 257 300.3 247 337.8 245.7C375.3 244.3 412.7 251.7 431.3 255.3L450 259L450 901L431.3 901C412.7 901 375.3 901 337.8 901C300.3 901 262.7 901 225.2 901C187.7 901 150.3 901 112.8 901C75.3 901 37.7 901 18.8 901L0 901Z" fill="#d3a426"></path><path d="M0 270L18.8 274.3C37.7 278.7 75.3 287.3 112.8 288.5C150.3 289.7 187.7 283.3 225.2 278.7C262.7 274 300.3 271 337.8 275.8C375.3 280.7 412.7 293.3 431.3 299.7L450 306L450 901L431.3 901C412.7 901 375.3 901 337.8 901C300.3 901 262.7 901 225.2 901C187.7 901 150.3 901 112.8 901C75.3 901 37.7 901 18.8 901L0 901Z" fill="#dead29"></path><path d="M0 377L18.8 374C37.7 371 75.3 365 112.8 369.3C150.3 373.7 187.7 388.3 225.2 389.7C262.7 391 300.3 379 337.8 367.3C375.3 355.7 412.7 344.3 431.3 338.7L450 333L450 901L431.3 901C412.7 901 375.3 901 337.8 901C300.3 901 262.7 901 225.2 901C187.7 901 150.3 901 112.8 901C75.3 901 37.7 901 18.8 901L0 901Z" fill="#eab72c"></path><path d="M0 437L18.8 433.2C37.7 429.3 75.3 421.7 112.8 423.8C150.3 426 187.7 438 225.2 435.7C262.7 433.3 300.3 416.7 337.8 412.8C375.3 409 412.7 418 431.3 422.5L450 427L450 901L431.3 901C412.7 901 375.3 901 337.8 901C300.3 901 262.7 901 225.2 901C187.7 901 150.3 901 112.8 901C75.3 901 37.7 901 18.8 901L0 901Z" fill="#f5c02f"></path><path d="M0 526L18.8 523.8C37.7 521.7 75.3 517.3 112.8 509C150.3 500.7 187.7 488.3 225.2 487.7C262.7 487 300.3 498 337.8 504.8C375.3 511.7 412.7 514.3 431.3 515.7L450 517L450 901L431.3 901C412.7 901 375.3 901 337.8 901C300.3 901 262.7 901 225.2 901C187.7 901 150.3 901 112.8 901C75.3 901 37.7 901 18.8 901L0 901Z" fill="#fbc739"></path><path d="M0 585L18.8 579C37.7 573 75.3 561 112.8 561.2C150.3 561.3 187.7 573.7 225.2 571.2C262.7 568.7 300.3 551.3 337.8 547.3C375.3 543.3 412.7 552.7 431.3 557.3L450 562L450 901L431.3 901C412.7 901 375.3 901 337.8 901C300.3 901 262.7 901 225.2 901C187.7 901 150.3 901 112.8 901C75.3 901 37.7 901 18.8 901L0 901Z" fill="#fcca47"></path><path d="M0 615L18.8 613.7C37.7 612.3 75.3 609.7 112.8 614.2C150.3 618.7 187.7 630.3 225.2 631.7C262.7 633 300.3 624 337.8 627.2C375.3 630.3 412.7 645.7 431.3 653.3L450 661L450 901L431.3 901C412.7 901 375.3 901 337.8 901C300.3 901 262.7 901 225.2 901C187.7 901 150.3 901 112.8 901C75.3 901 37.7 901 18.8 901L0 901Z" fill="#fcce54"></path><path d="M0 699L18.8 693.8C37.7 688.7 75.3 678.3 112.8 677.5C150.3 676.7 187.7 685.3 225.2 687.5C262.7 689.7 300.3 685.3 337.8 686.8C375.3 688.3 412.7 695.7 431.3 699.3L450 703L450 901L431.3 901C412.7 901 375.3 901 337.8 901C300.3 901 262.7 901 225.2 901C187.7 901 150.3 901 112.8 901C75.3 901 37.7 901 18.8 901L0 901Z" fill="#fcd160"></path><path d="M0 786L18.8 784.2C37.7 782.3 75.3 778.7 112.8 771C150.3 763.3 187.7 751.7 225.2 747.8C262.7 744 300.3 748 337.8 748.7C375.3 749.3 412.7 746.7 431.3 745.3L450 744L450 901L431.3 901C412.7 901 375.3 901 337.8 901C300.3 901 262.7 901 225.2 901C187.7 901 150.3 901 112.8 901C75.3 901 37.7 901 18.8 901L0 901Z" fill="#fdd56c"></path><path d="M0 805L18.8 811.2C37.7 817.3 75.3 829.7 112.8 837.2C150.3 844.7 187.7 847.3 225.2 840.7C262.7 834 300.3 818 337.8 810.3C375.3 802.7 412.7 803.3 431.3 803.7L450 804L450 901L431.3 901C412.7 901 375.3 901 337.8 901C300.3 901 262.7 901 225.2 901C187.7 901 150.3 901 112.8 901C75.3 901 37.7 901 18.8 901L0 901Z" fill="#fdd877"></path></svg>