<svg id="visual" viewBox="0 0 450 900" width="450" height="900" xmlns="http://www.w3.org/2000/svg" xmlns:xlink="http://www.w3.org/1999/xlink" version="1.1"><path d="M0 764L18.8 771.3C37.7 778.7 75.3 793.3 112.8 800.3C150.3 807.3 187.7 806.7 225.2 805.5C262.7 804.3 300.3 802.7 337.8 798.7C375.3 794.7 412.7 788.3 431.3 785.2L450 782L450 0L431.3 0C412.7 0 375.3 0 337.8 0C300.3 0 262.7 0 225.2 0C187.7 0 150.3 0 112.8 0C75.3 0 37.7 0 18.8 0L0 0Z" fill="#bc9220"></path><path d="M0 695L18.8 702.7C37.7 710.3 75.3 725.7 112.8 728.7C150.3 731.7 187.7 722.3 225.2 721.8C262.7 721.3 300.3 729.7 337.8 735.5C375.3 741.3 412.7 744.7 431.3 746.3L450 748L450 0L431.3 0C412.7 0 375.3 0 337.8 0C300.3 0 262.7 0 225.2 0C187.7 0 150.3 0 112.8 0C75.3 0 37.7 0 18.8 0L0 0Z" fill="#c79b23"></path><path d="M0 640L18.8 637.7C37.7 635.3 75.3 630.7 112.8 629.2C150.3 627.7 187.7 629.3 225.2 635.2C262.7 641 300.3 651 337.8 652.3C375.3 653.7 412.7 646.3 431.3 642.7L450 639L450 0L431.3 0C412.7 0 375.3 0 337.8 0C300.3 0 262.7 0 225.2 0C187.7 0 150.3 0 112.8 0C75.3 0 37.7 0 18.8 0L0 0Z" fill="#d3a426"></path><path d="M0 628L18.8 623.7C37.7 619.3 75.3 610.7 112.8 609.5C150.3 608.3 187.7 614.7 225.2 619.3C262.7 624 300.3 627 337.8 622.2C375.3 617.3 412.7 604.7 431.3 598.3L450 592L450 0L431.3 0C412.7 0 375.3 0 337.8 0C300.3 0 262.7 0 225.2 0C187.7 0 150.3 0 112.8 0C75.3 0 37.7 0 18.8 0L0 0Z" fill="#dead29"></path><path d="M0 521L18.8 524C37.7 527 75.3 533 112.8 528.7C150.3 524.3 187.7 509.7 225.2 508.3C262.7 507 300.3 519 337.8 530.7C375.3 542.3 412.7 553.7 431.3 559.3L450 565L450 0L431.3 0C412.7 0 375.3 0 337.8 0C300.3 0 262.7 0 225.2 0C187.7 0 150.3 0 112.8 0C75.3 0 37.7 0 18.8 0L0 0Z" fill="#eab72c"></path><path d="M0 461L18.8 464.8C37.7 468.7 75.3 476.3 112.8 474.2C150.3 472 187.7 460 225.2 462.3C262.7 464.7 300.3 481.3 337.8 485.2C375.3 489 412.7 480 431.3 475.5L450 471L450 0L431.3 0C412.7 0 375.3 0 337.8 0C300.3 0 262.7 0 225.2 0C187.7 0 150.3 0 112.8 0C75.3 0 37.7 0 18.8 0L0 0Z" fill="#f5c02f"></path><path d="M0 372L18.8 374.2C37.7 376.3 75.3 380.7 112.8 389C150.3 397.3 187.7 409.7 225.2 410.3C262.7 411 300.3 400 337.8 393.2C375.3 386.3 412.7 383.7 431.3 382.3L450 381L450 0L431.3 0C412.7 0 375.3 0 337.8 0C300.3 0 262.7 0 225.2 0C187.7 0 150.3 0 112.8 0C75.3 0 37.7 0 18.8 0L0 0Z" fill="#fbc739"></path><path d="M0 313L18.8 319C37.7 325 75.3 337 112.8 336.8C150.3 336.7 187.7 324.3 225.2 326.8C262.7 329.3 300.3 346.7 337.8 350.7C375.3 354.7 412.7 345.3 431.3 340.7L450 336L450 0L431.3 0C412.7 0 375.3 0 337.8 0C300.3 0 262.7 0 225.2 0C187.7 0 150.3 0 112.8 0C75.3 0 37.7 0 18.8 0L0 0Z" fill="#fcca47"></path><path d="M0 283L18.8 284.3C37.7 285.7 75.3 288.3 112.8 283.8C150.3 279.3 187.7 267.7 225.2 266.3C262.7 265 300.3 274 337.8 270.8C375.3 267.7 412.7 252.3 431.3 244.7L450 237L450 0L431.3 0C412.7 0 375.3 0 337.8 0C300.3 0 262.7 0 225.2 0C187.7 0 150.3 0 112.8 0C75.3 0 37.7 0 18.8 0L0 0Z" fill="#fcce54"></path><path d="M0 199L18.8 204.2C37.7 209.3 75.3 219.7 112.8 220.5C150.3 221.3 187.7 212.7 225.2 210.5C262.7 208.3 300.3 212.7 337.8 211.2C375.3 209.7 412.7 202.3 431.3 198.7L450 195L450 0L431.3 0C412.7 0 375.3 0 337.8 0C300.3 0 262.7 0 225.2 0C187.7 0 150.3 0 112.8 0C75.3 0 37.7 0 18.8 0L0 0Z" fill="#fcd160"></path><path d="M0 112L18.8 113.8C37.7 115.7 75.3 119.3 112.8 127C150.3 134.7 187.7 146.3 225.2 150.2C262.7 154 300.3 150 337.8 149.3C375.3 148.7 412.7 151.3 431.3 152.7L450 154L450 0L431.3 0C412.7 0 375.3 0 337.8 0C300.3 0 262.7 0 225.2 0C187.7 0 150.3 0 112.8 0C75.3 0 37.7 0 18.8 0L0 0Z" fill="#fdd56c"></path><path d="M0 93L18.8 86.8C37.7 80.7 75.3 68.3 112.8 60.8C150.3 53.3 187.7 50.7 225.2 57.3C262.7 64 300.3 80 337.8 87.7C375.3 95.3 412.7 94.7 431.3 94.3L450 94L450 0L431.3 0C412.7 0 375.3 0 337.8 0C300.3 0 262.7 0 225.2 0C187.7 0 150.3 0 112.8 0C75.3 0 37.7 0 18.8 0L0 0Z" fill="#fdd877"></path></svg>