<svg id="visual" viewBox="0 0 900 600" width="900" height="600" xmlns="http://www.w3.org/2000/svg" xmlns:xlink="http://www.w3.org/1999/xlink" version="1.1"><rect x="0" y="0" width="900" height="600" fill="#002233"></rect><path d="M0 537L21.5 538C43 539 86 541 128.8 541.7C171.7 542.3 214.3 541.7 257.2 537.3C300 533 343 525 385.8 525.5C428.7 526 471.3 535 514.2 536C557 537 600 530 642.8 531C685.7 532 728.3 541 771.2 540C814 539 857 528 878.5 522.5L900 517L900 601L878.5 601C857 601 814 601 771.2 601C728.3 601 685.7 601 642.8 601C600 601 557 601 514.2 601C471.3 601 428.7 601 385.8 601C343 601 300 601 257.2 601C214.3 601 171.7 601 128.8 601C86 601 43 601 21.5 601L0 601Z" fill="#0066FF" stroke-linecap="round" stroke-linejoin="miter"></path></svg>