<svg id="visual" viewBox="0 0 450 900" width="450" height="900" xmlns="http://www.w3.org/2000/svg" xmlns:xlink="http://www.w3.org/1999/xlink" version="1.1"><path d="M0 571L18.8 589.7C37.7 608.3 75.3 645.7 112.8 654.8C150.3 664 187.7 645 225.2 632C262.7 619 300.3 612 337.8 606.5C375.3 601 412.7 597 431.3 595L450 593L450 901L431.3 901C412.7 901 375.3 901 337.8 901C300.3 901 262.7 901 225.2 901C187.7 901 150.3 901 112.8 901C75.3 901 37.7 901 18.8 901L0 901Z" fill="#fdd877"></path><path d="M0 736L18.8 728.8C37.7 721.7 75.3 707.3 112.8 698.3C150.3 689.3 187.7 685.7 225.2 678.5C262.7 671.3 300.3 660.7 337.8 656.8C375.3 653 412.7 656 431.3 657.5L450 659L450 901L431.3 901C412.7 901 375.3 901 337.8 901C300.3 901 262.7 901 225.2 901C187.7 901 150.3 901 112.8 901C75.3 901 37.7 901 18.8 901L0 901Z" fill="#fccb4b"></path><path d="M0 708L18.8 715C37.7 722 75.3 736 112.8 745.3C150.3 754.7 187.7 759.3 225.2 753.2C262.7 747 300.3 730 337.8 724.8C375.3 719.7 412.7 726.3 431.3 729.7L450 733L450 901L431.3 901C412.7 901 375.3 901 337.8 901C300.3 901 262.7 901 225.2 901C187.7 901 150.3 901 112.8 901C75.3 901 37.7 901 18.8 901L0 901Z" fill="#e6b42b"></path><path d="M0 839L18.8 840.7C37.7 842.3 75.3 845.7 112.8 845C150.3 844.3 187.7 839.7 225.2 828.8C262.7 818 300.3 801 337.8 793.7C375.3 786.3 412.7 788.7 431.3 789.8L450 791L450 901L431.3 901C412.7 901 375.3 901 337.8 901C300.3 901 262.7 901 225.2 901C187.7 901 150.3 901 112.8 901C75.3 901 37.7 901 18.8 901L0 901Z" fill="#bc9220"></path></svg>